# xmcd
#
# Track frame offsets:
#	150
#	18371
#	37855
#
# Disc length: 675 seconds
#
# Revision: 0
# Processed by: cddbd v1.5.1PL0 Copyright (c) Steve Scherf et al.
# Submitted via: EasyCDDAExtractor 4.6.9.1
#
DISCID=1502a103
DTITLE=Deportees - Arrest Me 'Til It Hurts CDS
DYEAR=2004
DGENRE=
TTITLE0=Arrest Me 'Til It Hurts
TTITLE1=Nothing Wants You Back
TTITLE2=I Heard It Through The Bluegrass
EXTD=(c) 2004 EMI Music Sweden
EXTT0=
EXTT1=
EXTT2=
PLAYORDER=
